<svg xmlns="http://www.w3.org/2000/svg" viewBox="0 0 20 20"><path d="M1 1h7v7H1V1zm0 11h7v7H1v-7zm11 0h7v7h-7v-7z" fill="#FFF"/><path d="M19 11h-7a1 1 0 0 0-1 1v7a1 1 0 0 0 1 1h7a1 1 0 0 0 1-1v-7a1 1 0 0 0-1-1zM8 11H1a1 1 0 0 0-1 1v7a1 1 0 0 0 1 1h7a1 1 0 0 0 1-1v-7a1 1 0 0 0-1-1zM8 0H1a1 1 0 0 0-1 1v7a1 1 0 0 0 1 1h7a1 1 0 0 0 1-1V1a1 1 0 0 0-1-1zM2 18h5v-5H2v5zM2 7h5V2H2v5zm11 11v-5h5v5h-5zM12 6a1 1 0 1 1 0-2h2V2a1 1 0 1 1 2 0v2h2a1 1 0 1 1 0 2h-2v2a1 1 0 1 1-2 0V6h-2z" fill="#212B36" fill-rule="evenodd"/></svg>
