<svg xmlns="http://www.w3.org/2000/svg" viewBox="0 0 20 20"><path d="M10 0C4.486 0 0 4.486 0 10s4.486 10 10 10 10-4.486 10-10S15.514 0 10 0zm0 18c-4.41 0-8-3.59-8-8s3.59-8 8-8 8 3.59 8 8-3.59 8-8 8zM9.977 7c.026 0 .65.04 1.316.707a1 1 0 0 0 1.414-1.415A4.512 4.512 0 0 0 11 5.2V5a1 1 0 1 0-2 0v.184C7.84 5.598 7 6.698 7 8c0 2.28 1.727 2.712 2.758 2.97C10.873 11.25 11 11.354 11 12c0 .55-.448 1-.976 1-.026 0-.65-.04-1.317-.708a1 1 0 0 0-1.414 1.415c.604.603 1.215.92 1.707 1.092v.2a1.001 1.001 0 0 0 2 0v-.186A2.992 2.992 0 0 0 13 12c0-2.28-1.726-2.713-2.757-2.97C9.128 8.75 9 8.644 9 8c0-.552.45-1 .977-1z" fill="#212B36"/></svg>
