<svg xmlns="http://www.w3.org/2000/svg" viewBox="0 0 20 20"><path fill="#FFF" d="M1 1h7v6H1V1zm11 0h7v6h-7V1z"/><path fill-rule="evenodd" fill="#212B36" d="M19 0h-7a1 1 0 0 0-1 1v6a1 1 0 0 0 1 1h7a1 1 0 0 0 1-1V1a1 1 0 0 0-1-1zM8 0H1a1 1 0 0 0-1 1v6a1 1 0 0 0 1 1h7a1 1 0 0 0 1-1V1a1 1 0 0 0-1-1zm5 6h5V2h-5v4zM2 6h5V2H2v4zm6 4H1a1 1 0 1 0 0 2h7a1 1 0 1 0 0-2m0 4H1a1 1 0 1 0 0 2h7a1 1 0 1 0 0-2m-5 4H1a1 1 0 1 0 0 2h2a1 1 0 1 0 0-2m16-8h-7a1 1 0 1 0 0 2h7a1 1 0 1 0 0-2m0 4h-7a1 1 0 1 0 0 2h7a1 1 0 1 0 0-2m-5 4h-2a1 1 0 1 0 0 2h2a1 1 0 1 0 0-2"/></svg>
