<svg xmlns="http://www.w3.org/2000/svg" viewBox="0 0 24 24"><path d="M22,3.09h0a1,1,0,0,0-.65-1A1,1,0,0,0,20.93,2h-.07A17.35,17.35,0,0,0,7.66,12.07,4.92,4.92,0,0,0,7,12a5,5,0,0,0-5,5v4a1,1,0,0,0,1,1H7a5,5,0,0,0,5-5,4.9,4.9,0,0,0-.07-.66A17.35,17.35,0,0,0,22,3.15V3.09Zm-6.85,8.76A13,13,0,0,0,12.2,8.79a15.77,15.77,0,0,1,7.55-4.55A15.62,15.62,0,0,1,15.15,11.85ZM12.48,13.8q-.57.34-1.21.65h0a5,5,0,0,0-.33-.48l-.06-.08a5,5,0,0,0-.76-.76L10,13.06a5,5,0,0,0-.49-.33q.32-.65.66-1.23v0q.35-.59.72-1.12h0a12.1,12.1,0,0,1,2.63,2.75q-.52.36-1.09.7ZM7,20H4V17a3,3,0,1,1,3,3Z" /></svg>
