<svg viewBox="0 0 20 20" xmlns="http://www.w3.org/2000/svg"><path d="M17.408 3.875c-1.36-.09-4.385-.448-7.404-1.875-3.02 1.427-6.044 1.786-7.406 1.875-.957 3.272-.76 6.306.585 8.808 1.35 2.513 3.885 4.485 6.82 5.317 2.933-.832 5.47-2.804 6.82-5.317 1.343-2.502 1.543-5.536.585-8.808zM10 14.888c-.556 0-1-.448-1-1 0-.556.448-1 1-1 .556 0 1 .448 1 1 0 .557-.448 1-1 1zm1-4s0 1-1 1-1-1-1-1v-.148c0-.876.306-1.5 1-1.852.385-.195 1-.568 1-1 0-.55-.448-1-1-1s-1 .45-1 1c0 0 0 1-1 1s-1-1-1-1c0-1.654 1.346-3 3-3s3 1 3 3-2 2.165-2 3z"/></svg>