<svg xmlns="http://www.w3.org/2000/svg" viewBox="0 0 17 17"><circle cx="8.5" cy="8.59" r="7.2" fill="#fff"/><path d="M10.09 16.41a.8.8 0 0 1-.18-1.58 6.46 6.46 0 0 0 2-.81L12 14a.79.79 0 0 1 1.07.35.8.8 0 0 1-.3 1.05 7.89 7.89 0 0 1-2.46 1 .55.55 0 0 1-.22.01zm-3.2 0h-.18a7.89 7.89 0 0 1-2.47-1A.8.8 0 0 1 5.09 14a6.49 6.49 0 0 0 2 .82.8.8 0 0 1 .6 1 .81.81 0 0 1-.78.62zm7.7-3.18a.8.8 0 0 1-.8-.8.79.79 0 0 1 .12-.42 6.27 6.27 0 0 0 .83-2 .8.8 0 0 1 1.56.36 7.89 7.89 0 0 1-1 2.47.77.77 0 0 1-.71.39zm-12.19 0a.78.78 0 0 1-.67-.37 8.14 8.14 0 0 1-1-2.46.8.8 0 0 1 1.53-.4 6.19 6.19 0 0 0 .82 2 .8.8 0 0 1-.68 1.23zm13.12-5.4a.81.81 0 0 1-.78-.63 6.46 6.46 0 0 0-.81-2 .81.81 0 0 1 .24-1.11.79.79 0 0 1 1.1.24 8 8 0 0 1 1 2.47.8.8 0 0 1-.6 1h-.18zm-14 0a.58.58 0 0 1-.19 0 .79.79 0 0 1-.6-1 8.22 8.22 0 0 1 1-2.47.82.82 0 0 1 1.11-.26.8.8 0 0 1 .25 1.11 6.49 6.49 0 0 0-.82 2 .78.78 0 0 1-.77.62zM12.33 3.3a.83.83 0 0 1-.43-.13 6.49 6.49 0 0 0-2-.82.79.79 0 0 1-.63-.93.8.8 0 0 1 .94-.64 8.15 8.15 0 0 1 2.48 1A.8.8 0 0 1 13 2.92a.78.78 0 0 1-.68.37zm-7.65 0A.82.82 0 0 1 4 2.93a.8.8 0 0 1 .22-1.1l.1-.06a7.93 7.93 0 0 1 2.39-1 .8.8 0 0 1 1 .61.79.79 0 0 1-.6 1 6.43 6.43 0 0 0-2 .82.82.82 0 0 1-.43.12z"/></svg>