<svg xmlns="http://www.w3.org/2000/svg" viewBox="0 0 20 20"><path d="M18.63 18.689l-5.921 1.299.854-17.423c.052.01.104.03.148.064l1 1.006 1.59.12s.055.006.106.04c.051.033.067.123.067.123v-.002l2.156 14.773zM13.223 2.446l-.858 17.55-11.102-2.107L2.764 6.166s.02-.352.127-.482c.099-.119.515-.239.515-.239l1.767-.554C5.484 3.559 6.346.896 8.376.148c.676-.248 1.242-.192 1.681.167.099.082.19.178.272.29.396-.031.764.073 1.099.313.453.324.813.886 1.077 1.675l.436-.137-.001.001a.676.676 0 0 1 .283-.011zm-3.22-1.021c-.951.41-1.449 1.46-1.708 2.488l1.955-.614c.005-.631-.049-1.349-.247-1.874zM5.941 4.65l1.564-.49c.24-1.272.797-2.757 2.073-3.346-.239-.163-.557-.171-.97-.019C7.07 1.361 6.29 3.371 5.941 4.65zm3.762 4.784l.752-2.267a2.202 2.202 0 0 0-.404-.156 3.401 3.401 0 0 0-.523-.105 4.548 4.548 0 0 0-.615-.037 5.278 5.278 0 0 0-.681.048 4.26 4.26 0 0 0-1.38.416 3.492 3.492 0 0 0-1.015.765c-.275.301-.495.65-.65 1.039a3.9 3.9 0 0 0-.265 1.277 2.529 2.529 0 0 0 .344 1.422c.12.204.264.391.427.564.165.175.35.336.546.484.16.119.295.23.408.338.113.109.203.214.272.32.069.105.118.21.148.319.029.109.04.222.035.341a.891.891 0 0 1-.075.328.681.681 0 0 1-.49.396 1.075 1.075 0 0 1-.399.009 2.346 2.346 0 0 1-.505-.139 3.714 3.714 0 0 1-.471-.226 5.107 5.107 0 0 1-.406-.259 4.938 4.938 0 0 1-.314-.245l-.515 1.729c.086.11.194.221.322.328.129.108.278.212.443.309.167.099.35.19.546.27.198.081.409.15.627.204l.011.003.011.002.011.002.011.002c.466.104.919.13 1.34.073a2.714 2.714 0 0 0 1.178-.441c.352-.241.645-.574.856-.998.215-.429.345-.946.371-1.547A2.82 2.82 0 0 0 9.52 13a2.86 2.86 0 0 0-.418-.805 3.79 3.79 0 0 0-.586-.625 5.795 5.795 0 0 0-.645-.478 4.202 4.202 0 0 1-.4-.282c-.112-.091-.204-.181-.277-.27s-.126-.179-.16-.271a.724.724 0 0 1-.045-.284.932.932 0 0 1 .086-.355.82.82 0 0 1 .21-.276c.09-.077.199-.141.324-.185.127-.046.272-.074.431-.084a3.174 3.174 0 0 1 .955.092 3.44 3.44 0 0 1 .709.258l-.001-.001zm2.18-6.647c-.179-.57-.434-1.081-.788-1.335a.837.837 0 0 0-.419-.157c.141.42.223.939.246 1.555.003.081.005.16.005.238h.001l.955-.301z"/></svg>
