<svg xmlns="http://www.w3.org/2000/svg" viewBox="0 0 20 20"><path d="M4.1997 17a.8001.8001 0 0 1-.4696-.152.8005.8005 0 0 1-.3224-.7616l.7432-5.203-2.9168-2.9176a.7998.7998 0 0 1-.196-.8096.7979.7979 0 0 1 .6296-.5447l4.3985-.7336 2.2176-4.435c.1368-.2729.4368-.4529.72-.4425a.7997.7997 0 0 1 .7152.4504l2.1232 4.3615 4.4976.8008a.8.8 0 0 1 .6232.5471.7982.7982 0 0 1-.1976.8056l-2.9176 2.9175.744 5.203a.8003.8003 0 0 1-.3264.764.799.799 0 0 1-.8272.0632l-4.3824-2.219-4.5017 2.2222A.792.792 0 0 1 4.1997 17z" fill="#212B36"/></svg>
