<svg xmlns="http://www.w3.org/2000/svg" viewBox="0 0 20 20"><polygon fill="#FFF" points="3 1 12 1 15 5 15 19 3 19"/><path fill="#212B36" d="M17.996 3.025a3.17 3.17 0 0 0-.925-2.041C16.087-.02 14.383-.412 12.986.648L12.8.4A1 1 0 0 0 12 0H3a1 1 0 0 0-1 1v18a1 1 0 0 0 1 1h12a1 1 0 0 0 1-1V6.397l1.041-1.044c.661-.649 1.001-1.476.955-2.328zM14 18H4V2h7.5L14 5.333v.239L9.953 9.633c-.319.318-.666.43-1.026.333a1.317 1.317 0 0 1-.893-.893c-.097-.363.015-.708.333-1.026l2.34-2.34a.999.999 0 1 0-1.414-1.414l-2.34 2.34c-.824.824-1.134 1.902-.851 2.958a3.315 3.315 0 0 0 2.308 2.307c.256.069.513.102.768.102.795 0 1.566-.329 2.19-.954L14 8.405V18zm1.644-15.616c.127.131.731.821-.011 1.549l-.105.105-1.345-1.795c.706-.544 1.336.014 1.461.141z"/></svg>
