<svg viewBox="0 0 20 20" xmlns="http://www.w3.org/2000/svg"><path d="M16.253 13.2A2.396 2.396 0 0 0 14 11.6c-1.042 0-1.92.67-2.253 1.6H11.6V10h4.8v3.2h-.147zM14 14.8c-.44 0-.8-.36-.8-.8 0-.44.36-.8.8-.8.44 0 .8.36.8.8 0 .44-.36.8-.8.8zm-8 0c-.44 0-.8-.36-.8-.8 0-.44.36-.8.8-.8.44 0 .8.36.8.8 0 .44-.36.8-.8.8zM3.6 5.2H10v8H8.253A2.397 2.397 0 0 0 6 11.6c-1.042 0-1.92.67-2.253 1.6H3.6v-8zm10.747.8l1.44 2.4H11.6V6h2.747zm3.54 2.788l-2.4-4A.803.803 0 0 0 14.8 4.4h-3.2a.8.8 0 0 0-.8-.8h-8a.8.8 0 0 0-.8.8V14a.8.8 0 0 0 .8.8h.948c.332.93 1.21 1.6 2.252 1.6 1.042 0 1.92-.67 2.253-1.6h3.496c.33.93 1.21 1.6 2.251 1.6 1.042 0 1.92-.67 2.253-1.6h.947a.8.8 0 0 0 .8-.8V9.2a.813.813 0 0 0-.114-.412z"/></svg>
